<?xml version="1.0" ?><!DOCTYPE svg  PUBLIC '-//W3C//DTD SVG 1.1//EN'  'http://www.w3.org/Graphics/SVG/1.1/DTD/svg11.dtd'><svg enable-background="new 0 0 48 48" height="48px" id="Layer_1" version="1.1" viewBox="0 0 48 48" width="48px" xml:space="preserve" xmlns="http://www.w3.org/2000/svg" xmlns:xlink="http://www.w3.org/1999/xlink"><g><g><path d="M28.761,42.45c-0.006,0-0.012,0-0.017,0c-0.552-0.009-0.993-0.464-0.984-1.016c0.028-1.757,0.063-3.514,0.101-5.27    c0.082-4.033,0.168-8.203,0.146-12.297c-0.018-3.451-0.199-7.241-0.572-11.927c-0.056-0.7-0.358-1.45-0.68-2.243    C26.661,9.468,26.567,9.234,26.478,9c-3.998-0.642-8.666-1.104-13.431-0.102c-1.53,0.322-2.019,0.973-2.012,2.678    c0.033,7.213,0.028,14.428,0.023,21.643l-0.003,7.674c0,0.553-0.448,1-1,1s-1-0.447-1-1l0.003-7.675    c0.005-7.212,0.009-14.423-0.023-21.633c-0.011-2.649,1.133-4.125,3.601-4.644c5.321-1.119,10.441-0.537,14.747,0.18    c0.364,0.061,0.666,0.317,0.784,0.668c0.132,0.394,0.289,0.779,0.442,1.159c0.363,0.898,0.739,1.828,0.819,2.835    c0.377,4.736,0.561,8.573,0.578,12.075c0.021,4.119-0.064,8.302-0.147,12.348c-0.036,1.753-0.071,3.507-0.1,5.26    C29.751,42.013,29.306,42.45,28.761,42.45z"/></g><g><path d="M37.577,40.34c-0.953,0-1.841-0.244-2.619-0.728c-1.188-0.736-2.003-1.961-2.359-3.541    c-0.375-1.665-0.463-3.396-0.557-5.229c-0.029-0.577-0.061-1.173-0.101-1.792h-2.345c-0.553,0-1-0.447-1-1s0.447-1,1-1h3.275    c0.521,0,0.954,0.4,0.996,0.919c0.079,0.977,0.126,1.896,0.171,2.771c0.093,1.82,0.173,3.393,0.511,4.892    c0.236,1.045,0.742,1.834,1.463,2.281c0.699,0.434,1.582,0.537,2.553,0.302c1.323-0.322,1.736-1.136,1.77-3.479    c0.023-1.787,0.067-3.573,0.111-5.36c0.021-0.852,0.042-1.704,0.061-2.557c-0.221,0.006-0.443,0.017-0.664,0.027    c-0.756,0.037-1.539,0.076-2.334-0.077c-1.805-0.349-3.174-1.2-3.959-2.463c-0.814-1.309-0.973-3.001-0.455-4.896    c0.146-0.541,0.262-1.09,0.378-1.634c0.021-0.101,0.042-0.199,0.063-0.299l-4.443-4.776c-0.367-0.394-0.355-1.007,0.025-1.388    l1.932-1.932c0.188-0.188,0.441-0.293,0.707-0.293l0,0c0.266,0,0.52,0.105,0.707,0.294c0.85,0.851,1.689,1.682,2.518,2.502    c2.36,2.339,4.59,4.548,6.738,6.89c0.869,0.942,0.859,2.534,0.854,3.697c-0.014,2.317-0.07,4.635-0.127,6.952    c-0.045,1.779-0.088,3.559-0.111,5.339c-0.023,1.61-0.064,4.606-3.297,5.395C38.538,40.279,38.05,40.34,37.577,40.34z     M31.214,12.047l4.144,4.452c0.226,0.242,0.316,0.58,0.243,0.902c-0.059,0.262-0.115,0.526-0.172,0.791    c-0.123,0.58-0.248,1.166-0.404,1.743c-0.367,1.345-0.29,2.49,0.223,3.313c0.491,0.789,1.38,1.313,2.641,1.557    c0.56,0.105,1.189,0.076,1.856,0.044c0.268-0.014,0.536-0.026,0.802-0.031c0.013-0.785,0.022-1.571,0.027-2.357    c0.004-0.639,0.011-1.967-0.326-2.332c-2.117-2.309-4.33-4.501-6.674-6.822c-0.6-0.594-1.205-1.194-1.816-1.803L31.214,12.047z"/></g><g><path d="M30.993,43.008c-0.014,0-0.027,0-0.042-0.001c-1.353-0.056-2.706-0.121-4.059-0.186c-3.055-0.147-6.214-0.299-9.314-0.341    c-2.551-0.037-5.164,0.055-7.688,0.142c-1.146,0.039-2.293,0.078-3.439,0.107c-0.549,0.016-1.011-0.423-1.024-0.975    c-0.014-0.553,0.422-1.012,0.975-1.025c1.14-0.028,2.28-0.067,3.42-0.106c2.548-0.088,5.183-0.172,7.785-0.143    c3.134,0.043,6.311,0.195,9.383,0.343c1.348,0.064,2.696,0.13,4.045,0.186c0.552,0.022,0.98,0.488,0.957,1.041    C31.97,42.587,31.526,43.008,30.993,43.008z"/></g><g><path d="M16.739,22.343c-3.265,0-4.389-0.49-4.761-4.258c-0.038-0.387-0.099-0.786-0.161-1.192    c-0.286-1.891-0.642-4.242,1.113-6.251c0.23-0.264,0.566-0.383,0.893-0.332c0.045-0.007,0.092-0.01,0.14-0.01h11.585    c0.552,0,1,0.447,1,1v9.761c0,0.538-0.427,0.98-0.965,0.999c-0.872,0.031-1.732,0.065-2.584,0.101    c-1.949,0.078-3.79,0.152-5.672,0.179C17.124,22.342,16.928,22.343,16.739,22.343z M14.173,12.3    c-0.839,1.245-0.615,2.729-0.378,4.293c0.067,0.441,0.132,0.876,0.173,1.297c0.246,2.491,0.244,2.487,3.331,2.449    c1.856-0.025,3.684-0.1,5.619-0.178c0.54-0.021,1.083-0.043,1.63-0.064V12.3H14.173z"/></g></g></svg>